<svg width="233" height="268" viewBox="0 0 233 268" fill="none" xmlns="http://www.w3.org/2000/svg">
<path id="custom-bg" d="M289.253 54.0104C274.267 37.6569 256.164 24.4627 236.008 15.2026C215.852 5.94257 194.048 0.803387 171.878 0.0868892C149.708 -0.629609 127.618 3.09102 106.906 11.0303C86.1941 18.9695 67.2772 30.9673 51.2663 46.3191C35.2555 61.6709 22.4735 80.0671 13.6711 100.427C4.86874 120.788 0.223384 142.702 0.00786023 164.882C-0.207664 187.063 4.01099 209.063 12.4161 229.59C20.8212 250.118 33.2432 268.759 48.9527 284.419L106.906 271C97.175 261.299 76.2591 218.297 71.0526 205.581C65.846 192.866 63.2328 179.238 63.3663 165.498C63.4998 151.758 66.3774 138.183 71.83 125.571C77.2826 112.959 85.2004 101.564 95.1184 92.0538C105.036 82.5442 116.754 75.1121 129.585 70.1941C142.415 65.2761 156.098 62.9714 169.832 63.4152C183.565 63.8591 197.071 67.0425 209.557 72.7787C222.043 78.5148 233.256 86.688 242.54 96.8182L289.253 54.0104Z" fill="#080E35" fill-opacity="0.7"/>
</svg>
