<svg width="32" height="32" viewBox="0 0 32 32" fill="none" xmlns="http://www.w3.org/2000/svg">
<g id="logo">
<path id="Ellipse 1" d="M7.95429 28.5294C7.59093 29.1742 6.75656 29.3849 6.17195 28.9309C4.94314 27.9767 3.85533 26.8274 2.94751 25.5208C1.77423 23.8321 0.924562 21.9137 0.447018 19.8751C-0.0305251 17.8365 -0.126594 15.7177 0.164296 13.6395C0.455187 11.5614 1.12734 9.56459 2.14238 7.76325C3.15742 5.96191 4.49547 4.39125 6.08013 3.14097C7.66479 1.89068 9.46502 0.985247 11.378 0.476359C13.2911 -0.032529 15.2794 -0.134903 17.2296 0.175081C18.7835 0.422081 20.2889 0.927036 21.6917 1.66926C22.296 1.98901 22.4814 2.74888 22.1457 3.34453C21.7824 3.98937 20.9538 4.18981 20.2901 3.86221C19.2057 3.32697 18.0529 2.95845 16.8664 2.76985C15.236 2.51068 13.5737 2.59627 11.9743 3.02171C10.3749 3.44717 8.86989 4.20414 7.54506 5.24942C6.22024 6.2947 5.10158 7.60782 4.25298 9.1138C3.40437 10.6198 2.84243 12.2892 2.59923 14.0266C2.35604 15.764 2.43635 17.5354 2.8356 19.2397C3.23484 20.9441 3.94519 22.5479 4.92609 23.9597C5.66974 25.03 6.55785 25.9741 7.55976 26.7622C8.09714 27.1849 8.28993 27.9337 7.95429 28.5294Z" fill="#325AE7"/>
<path id="Ellipse 2" d="M29.9814 14.7274C30.1382 16.8219 29.9064 18.9288 29.2991 20.9278C28.6919 22.9268 27.7211 24.7788 26.4421 26.378C25.1632 27.9772 23.6013 29.2923 21.8454 30.2482C20.0896 31.2042 18.1742 31.7822 16.2087 31.9493L16.0129 29.3342C17.6561 29.1944 19.2574 28.7112 20.7254 27.912C22.1933 27.1128 23.4992 26.0133 24.5684 24.6763C25.6376 23.3393 26.4492 21.791 26.9569 20.1198C27.4646 18.4485 27.6584 16.6871 27.5273 14.936L29.9814 14.7274Z" fill="#325AE7"/>
<path id="Rectangle 2" d="M29.0482 3.99592C29.5923 3.42516 30.4698 3.42734 31.0114 4.0008C31.5567 4.57808 31.5546 5.51472 31.0068 6.08929L14.3822 23.5269C13.8381 24.0977 12.9606 24.0955 12.419 23.522C11.8737 22.9448 11.8758 22.0081 12.4236 21.4336L29.0482 3.99592Z" fill="#325AE7"/>
<path id="Rectangle 1" d="M6.45204 17.8277C5.8846 17.2269 5.8846 16.2528 6.45204 15.652C7.01947 15.0512 7.93947 15.0512 8.50691 15.652L13.8496 21.3088C14.417 21.9096 14.417 22.8837 13.8496 23.4845C13.2821 24.0853 12.3621 24.0853 11.7947 23.4845L6.45204 17.8277Z" fill="#325AE7"/>
</g>
</svg>
