<svg width="712" height="311" viewBox="0 0 712 311" fill="none" xmlns="http://www.w3.org/2000/svg">
<g id="page-not-found">
<g id="four-2">
<path id="Vector" d="M695.276 209.721H668.552V131.027C668.552 126.847 666.892 122.838 663.936 119.883C660.981 116.927 656.972 115.267 652.792 115.267H646.53C644.461 115.267 642.411 115.674 640.499 116.466C638.587 117.258 636.85 118.419 635.386 119.883C633.923 121.346 632.762 123.083 631.97 124.996C631.178 126.908 630.771 128.957 630.771 131.027V209.721H555.392C553.841 209.721 552.317 209.32 550.967 208.557C549.617 207.795 548.487 206.696 547.686 205.368C546.886 204.04 546.442 202.527 546.399 200.977C546.355 199.427 546.713 197.892 547.437 196.521L627.217 45.5235C628.211 43.6409 628.814 41.5763 628.989 39.4543C629.164 37.3323 628.907 35.197 628.233 33.1771C627.56 31.1572 626.484 29.2947 625.071 27.702C623.658 26.1093 621.937 24.8194 620.012 23.9103L615.302 21.6863C611.645 19.9594 607.465 19.7044 603.625 20.9741C599.785 22.2438 596.581 24.9409 594.674 28.5074L497.372 210.529C495.715 213.628 494.848 217.089 494.848 220.603V220.603C494.848 226.271 497.1 231.707 501.108 235.714C505.115 239.722 510.551 241.974 516.219 241.974H630.771V291.735C630.771 296.745 632.761 301.55 636.304 305.093C639.846 308.635 644.651 310.626 649.661 310.626V310.626C654.671 310.626 659.476 308.635 663.019 305.093C666.562 301.55 668.552 296.745 668.552 291.735V241.974H695.276C699.553 241.974 703.655 240.275 706.679 237.25C709.703 234.226 711.402 230.124 711.402 225.847V225.847C711.402 221.57 709.703 217.469 706.679 214.444C703.655 211.42 699.553 209.721 695.276 209.721Z" fill="#6C63FF"/>
</g>
<g id="four-1">
<path id="Vector_2" d="M200.427 209.721H173.704V131.027C173.704 126.847 172.043 122.838 169.088 119.883C166.132 116.927 162.124 115.267 157.944 115.267H151.682C149.612 115.267 147.563 115.674 145.651 116.466C143.739 117.258 142.001 118.419 140.538 119.883C139.075 121.346 137.914 123.083 137.122 124.996C136.33 126.908 135.922 128.957 135.922 131.027V209.721H60.5437C58.993 209.721 57.4686 209.32 56.1185 208.557C54.7683 207.795 53.6382 206.696 52.8378 205.368C52.0374 204.04 51.5939 202.527 51.5502 200.977C51.5066 199.427 51.8643 197.892 52.5888 196.521L132.368 45.5234C133.363 43.6409 133.966 41.5763 134.141 39.4543C134.315 37.3323 134.058 35.1969 133.385 33.177C132.712 31.1572 131.636 29.2947 130.223 27.702C128.81 26.1093 127.089 24.8194 125.163 23.9102L120.454 21.6863C116.797 19.9594 112.616 19.7044 108.776 20.9741C104.937 22.2437 101.732 24.9409 99.8255 28.5074L2.52377 210.529C0.866852 213.628 -3.27077e-07 217.089 0 220.603V220.603C0 223.41 0.552756 226.189 1.62671 228.781C2.70066 231.374 4.27479 233.73 6.25919 235.714C8.2436 237.699 10.5994 239.273 13.1922 240.347C15.7849 241.421 18.5638 241.974 21.3702 241.974H135.922V291.735C135.922 294.216 136.411 296.672 137.36 298.964C138.309 301.256 139.701 303.339 141.455 305.093C143.209 306.847 145.292 308.238 147.584 309.188C149.876 310.137 152.332 310.626 154.813 310.626H154.813C157.294 310.626 159.75 310.137 162.042 309.188C164.334 308.238 166.417 306.847 168.171 305.093C169.925 303.339 171.316 301.256 172.266 298.964C173.215 296.672 173.704 294.216 173.704 291.735V241.974H200.427C204.704 241.974 208.806 240.275 211.83 237.25C214.855 234.226 216.554 230.124 216.554 225.847V225.847C216.554 221.57 214.855 217.469 211.831 214.444C208.806 211.42 204.704 209.721 200.427 209.721V209.721Z" fill="#6C63FF"/>
<path id="Vector_3" d="M207.8 200.506H181.076V121.812C181.076 119.742 180.668 117.693 179.876 115.78C179.084 113.868 177.923 112.131 176.46 110.668C174.996 109.204 173.259 108.043 171.347 107.251C169.435 106.459 167.386 106.052 165.316 106.052H159.054C154.874 106.052 150.866 107.712 147.91 110.668C144.955 113.623 143.294 117.632 143.294 121.812V200.506H67.9158C66.3651 200.506 64.8407 200.105 63.4906 199.342C62.1404 198.58 61.0103 197.481 60.2099 196.153C59.4095 194.825 58.9659 193.312 58.9223 191.762C58.8787 190.212 59.2364 188.677 59.9608 187.306L139.74 36.3084C140.735 34.4258 141.338 32.3612 141.513 30.2392C141.687 28.1173 141.43 25.9819 140.757 23.962C140.084 21.9421 139.008 20.0796 137.595 18.4869C136.182 16.8942 134.461 15.6043 132.536 14.6952L127.826 12.4712C124.169 10.7443 119.988 10.4893 116.148 11.759C112.309 13.0287 109.104 15.7258 107.198 19.2923L9.89584 201.314C8.23893 204.413 7.37207 207.874 7.37207 211.388V211.388C7.37207 217.056 9.62357 222.492 13.6313 226.499C17.639 230.507 23.0746 232.759 28.7423 232.759H143.294V282.52C143.294 285.001 143.783 287.457 144.732 289.749C145.681 292.041 147.073 294.124 148.827 295.878C150.581 297.632 152.664 299.023 154.956 299.973C157.248 300.922 159.704 301.411 162.185 301.411H162.185C167.195 301.411 172 299.42 175.543 295.878C179.086 292.335 181.076 287.53 181.076 282.52V232.759H207.799C209.917 232.759 212.014 232.341 213.971 231.531C215.927 230.721 217.705 229.533 219.203 228.035C220.7 226.538 221.888 224.76 222.698 222.804C223.509 220.847 223.926 218.75 223.926 216.632V216.632C223.926 214.515 223.509 212.418 222.698 210.461C221.888 208.504 220.7 206.727 219.203 205.229C217.705 203.732 215.927 202.544 213.971 201.733C212.014 200.923 209.917 200.506 207.8 200.506V200.506Z" stroke="#6C63FF" stroke-width="0.752053" stroke-miterlimit="10"/>
</g>
<g id="zero">
<path id="Vector_4" d="M350.172 9.29352C285.538 9.29352 239.131 50.7613 239.131 147.519C239.131 257.179 285.538 286.206 350.172 286.206C414.807 286.206 463.978 254.414 463.978 147.519C463.978 33.2527 414.807 9.29352 350.172 9.29352ZM350.597 249.806C305.83 249.806 282.441 223.543 282.441 147.59C282.441 80.5733 306.787 45.2322 351.554 45.2322C396.322 45.2322 420.667 68.4464 420.667 147.59C420.667 221.628 395.364 249.806 350.597 249.806Z" fill="#151D4D"/>
<path id="Vector_5" d="M364.916 1C300.282 1 253.875 42.4677 253.875 139.226C253.875 248.885 300.282 277.912 364.916 277.912C429.551 277.912 478.722 246.12 478.722 139.226C478.722 24.9591 429.551 1 364.916 1ZM365.341 241.513C320.574 241.513 297.186 215.249 297.186 139.297C297.186 72.2798 321.531 36.9387 366.298 36.9387C411.066 36.9387 435.411 60.1529 435.411 139.297C435.411 213.334 410.108 241.513 365.341 241.513V241.513Z" stroke="#151D4D" stroke-width="0.752053" stroke-miterlimit="10"/>
<path id="Vector_6" d="M320.481 140.23C327.542 140.23 333.266 132.823 333.266 123.685C333.266 114.548 327.542 107.14 320.481 107.14C313.42 107.14 307.696 114.548 307.696 123.685C307.696 132.823 313.42 140.23 320.481 140.23Z" fill="#151D4D"/>
<path id="Vector_7" d="M390.046 140.606C397.107 140.606 402.831 133.199 402.831 124.061C402.831 114.924 397.107 107.516 390.046 107.516C382.985 107.516 377.261 114.924 377.261 124.061C377.261 133.199 382.985 140.606 390.046 140.606Z" fill="#151D4D"/>
<path id="Vector_8" d="M380.27 172.945C380.27 180.42 369.831 186.482 356.956 186.482C344.081 186.482 333.642 180.42 333.642 172.945C333.642 166.469 341.471 161.055 351.932 159.731C353.598 159.511 355.276 159.403 356.956 159.408C359.771 159.399 362.578 159.701 365.326 160.31C374.065 162.258 380.27 167.184 380.27 172.945Z" fill="#151D4D"/>
<path id="Vector_9" d="M323.489 136.47C330.55 136.47 336.274 129.063 336.274 119.925C336.274 110.787 330.55 103.38 323.489 103.38C316.429 103.38 310.705 110.787 310.705 119.925C310.705 129.063 316.429 136.47 323.489 136.47Z" stroke="#151D4D" stroke-width="0.752053" stroke-miterlimit="10"/>
<path id="Vector_10" d="M393.054 136.846C400.115 136.846 405.839 129.439 405.839 120.301C405.839 111.163 400.115 103.756 393.054 103.756C385.993 103.756 380.269 111.163 380.269 120.301C380.269 129.439 385.993 136.846 393.054 136.846Z" stroke="#151D4D" stroke-width="0.752053" stroke-miterlimit="10"/>
<path id="Vector_11" d="M359.964 182.721C372.84 182.721 383.278 176.661 383.278 169.184C383.278 161.708 372.84 155.647 359.964 155.647C347.088 155.647 336.65 161.708 336.65 169.184C336.65 176.661 347.088 182.721 359.964 182.721Z" stroke="#151D4D" stroke-width="0.752053" stroke-miterlimit="10"/>
<path id="Vector_12" d="M365.604 161.438C365.61 162.384 365.255 163.296 364.612 163.989C364.308 164.321 363.938 164.587 363.527 164.769C363.115 164.951 362.67 165.046 362.22 165.048H354.7C353.773 165.016 352.897 164.618 352.263 163.942C351.628 163.265 351.288 162.365 351.315 161.438C351.311 160.705 351.526 159.987 351.932 159.377C353.596 159.142 355.275 159.027 356.956 159.032C359.774 159.022 362.584 159.346 365.326 159.994C365.512 160.453 365.606 160.943 365.604 161.438V161.438Z" fill="white"/>
<path id="Vector_13" d="M323.49 119.173C325.566 119.173 327.25 117.489 327.25 115.413C327.25 113.336 325.566 111.652 323.49 111.652C321.413 111.652 319.729 113.336 319.729 115.413C319.729 117.489 321.413 119.173 323.49 119.173Z" fill="white"/>
<path id="Vector_14" d="M393.43 119.173C395.507 119.173 397.191 117.489 397.191 115.413C397.191 113.336 395.507 111.652 393.43 111.652C391.354 111.652 389.67 113.336 389.67 115.413C389.67 117.489 391.354 119.173 393.43 119.173Z" fill="white"/>
<path id="Vector_15" opacity="0.3" d="M397.191 154.519C399.267 154.519 400.951 152.836 400.951 150.759C400.951 148.682 399.267 146.999 397.191 146.999C395.114 146.999 393.43 148.682 393.43 150.759C393.43 152.836 395.114 154.519 397.191 154.519Z" fill="#6C63FF"/>
<path id="Vector_16" opacity="0.3" d="M305.44 154.519C307.517 154.519 309.2 152.836 309.2 150.759C309.2 148.682 307.517 146.999 305.44 146.999C303.363 146.999 301.68 148.682 301.68 150.759C301.68 152.836 303.363 154.519 305.44 154.519Z" fill="#6C63FF"/>
</g>
</g>
</svg>
